<svg width="22" height="22" viewBox="0 0 22 22" fill="none" xmlns="http://www.w3.org/2000/svg">
<g clip-path="url(#clip0_6124_86193)">
<path fill-rule="evenodd" clip-rule="evenodd" d="M13.5012 4.68448L15.216 5.67633L17.4337 5.54353L18.9427 8.1572L17.7193 10.0098V11.9901L18.9427 13.8427L17.4337 16.4572L15.216 16.3244L13.5012 17.3154L12.5094 19.3H9.49148L8.4988 17.3154L6.78402 16.3236L4.56626 16.4564L3.05732 13.8427L4.28074 11.9901V10.0098L3.05732 8.1572L4.56626 5.5427L6.78402 5.6755L8.4988 4.68531L9.49064 2.69995H12.5094L13.5012 4.68448ZM11.0195 6.47313C12.2202 6.47313 13.3717 6.95011 14.2207 7.79913C15.0698 8.64815 15.5467 9.79967 15.5467 11.0004C15.5467 12.2011 15.0698 13.3526 14.2207 14.2016C13.3717 15.0506 12.2202 15.5276 11.0195 15.5276C9.8187 15.5276 8.66707 15.0506 7.81797 14.2015C6.96887 13.3524 6.49186 12.2008 6.49186 11C6.49186 9.79914 6.96887 8.64752 7.81797 7.79842C8.66707 6.94932 9.8187 6.47313 11.0195 6.47313Z" fill="#8A95A1"/>
<path d="M8.75626 11L11.0197 8.73657L13.2839 11L11.0197 13.2634L8.75626 11Z" fill="#8A95A1"/>
</g>
<defs>
<clipPath id="clip0_6124_86193">
<rect width="22" height="22" fill="white"/>
</clipPath>
</defs>
</svg>
