<svg width="22" height="22" viewBox="0 0 22 22" fill="none" xmlns="http://www.w3.org/2000/svg">
<g clip-path="url(#clip0_6124_86059)">
<path d="M1 9H3.70007V19H1V9ZM11.6801 12.8565C11.9308 13.1098 12.2285 13.3107 12.5561 13.4478C12.8837 13.5849 13.2348 13.6554 13.5894 13.6554C13.944 13.6554 14.2951 13.5849 14.6227 13.4478C14.9503 13.3107 15.248 13.1098 15.4987 12.8565L11.6821 9H5.50101V15.3637C5.50101 16.328 5.88019 17.2528 6.55515 17.9347C7.23011 18.6166 8.14558 18.9998 9.1002 19H14.6191C15.781 19 16.8953 18.5338 17.7169 17.7039C18.5384 16.874 19 15.7484 19 14.5748L12.1398 14.5741L9.58486 11.9933L10.2052 11.3674L11.6801 12.8565Z" fill="#8A95A1"/>
<path d="M17 2C18.0608 2.00002 19.078 2.42177 19.8281 3.17188C20.5782 3.92199 21 4.9392 21 6C21 7.06081 20.5782 8.07802 19.8281 8.82812C19.078 9.57823 18.0608 9.99998 17 10C15.9392 10 14.922 9.5782 14.1719 8.82812C13.4218 8.07802 13 7.06081 13 6C13 4.93916 13.4217 3.922 14.1719 3.17188C14.922 2.42175 15.9392 2 17 2ZM15.249 6L16.999 7.75L18.749 6L16.999 4.25L15.249 6Z" fill="#8A95A1"/>
</g>
<defs>
<clipPath id="clip0_6124_86059">
<rect width="22" height="22" fill="white"/>
</clipPath>
</defs>
</svg>
