<svg width="22" height="22" viewBox="0 0 22 22" fill="none" xmlns="http://www.w3.org/2000/svg">
<g clip-path="url(#clip0_6124_86018)">
<g clip-path="url(#clip1_6124_86018)">
<path d="M7.27066 8.70833V6.55208H5.354V10.3854H2.95816V4.15625H7.27066V2L10.6248 5.35417L7.27066 8.70833Z" fill="#8A95A1"/>
<path fill-rule="evenodd" clip-rule="evenodd" d="M19.25 6.07284C19.25 5.05617 18.8461 4.08115 18.1272 3.36226C17.4084 2.64337 16.4333 2.2395 15.4167 2.2395C14.4 2.2395 13.425 2.64337 12.7061 3.36226C11.9872 4.08115 11.5833 5.05617 11.5833 6.07284C11.5833 7.0895 11.9872 8.06452 12.7061 8.78341C13.425 9.5023 14.4 9.90617 15.4167 9.90617C16.4333 9.90617 17.4084 9.5023 18.1272 8.78341C18.8461 8.06452 19.25 7.0895 19.25 6.07284ZM15.4167 7.74992L13.7396 6.07284L15.4167 4.39575L17.0937 6.07284L15.4167 7.74992ZM5.83333 19.4895C4.81667 19.4895 3.84165 19.0856 3.12276 18.3667C2.40387 17.6479 2 16.6728 2 15.6562C2 14.6395 2.40387 13.6645 3.12276 12.9456C3.84165 12.2267 4.81667 11.8228 5.83333 11.8228C6.85 11.8228 7.82502 12.2267 8.54391 12.9456C9.2628 13.6645 9.66667 14.6395 9.66667 15.6562C9.66667 16.6728 9.2628 17.6479 8.54391 18.3667C7.82502 19.0856 6.85 19.4895 5.83333 19.4895ZM7.51042 15.6562L5.83333 13.9791L4.15625 15.6562L5.83333 17.3333L7.51042 15.6562Z" fill="#8A95A1"/>
<path d="M13.9792 13.0208V15.1771H15.8958V11.3438H18.2917V17.5729H13.9792V19.7292L10.625 16.375L13.9792 13.0208Z" fill="#8A95A1"/>
</g>
</g>
<defs>
<clipPath id="clip0_6124_86018">
<rect width="22" height="22" fill="white"/>
</clipPath>
<clipPath id="clip1_6124_86018">
<rect width="22" height="22" fill="white"/>
</clipPath>
</defs>
</svg>
