<svg width="22" height="22" viewBox="0 0 22 22" fill="none" xmlns="http://www.w3.org/2000/svg">
<g clip-path="url(#clip0_6124_86099)">
<g clip-path="url(#clip1_6124_86099)">
<path d="M2 6.26465C2 7.14599 2.74506 7.86012 3.66406 7.86035H16.1475V10.6475C13.6986 10.9178 11.7939 12.9937 11.7939 15.5146C11.7939 16.5215 12.0981 17.4571 12.6191 18.2354H5.3291C3.49076 18.2354 2 16.8059 2 15.043V6.26465ZM5.27734 15.6494H10.0176V14.0527H5.27734V15.6494ZM5.27734 12.4492H7.77344V10.8535H5.27734V12.4492Z" fill="#8A95A1"/>
<path fill-rule="evenodd" clip-rule="evenodd" d="M16.6912 11.7058C17.7014 11.7058 18.6702 12.1071 19.3844 12.8214C20.0987 13.5357 20.5 14.5045 20.5 15.5147C20.5 16.5248 20.0987 17.4936 19.3844 18.2079C18.6702 18.9222 17.7014 19.3235 16.6912 19.3235C15.6811 19.3235 14.7123 18.9222 13.998 18.2079C13.2837 17.4936 12.8825 16.5248 12.8825 15.5147C12.8825 14.5045 13.2837 13.5357 13.998 12.8214C14.7123 12.1071 15.6811 11.7058 16.6912 11.7058ZM17.2368 14.8002L14.3803 14.8002V16.2284L17.2368 16.2284V17.6567L19.3792 15.5143L17.2368 13.3719V14.8002Z" fill="#8A95A1"/>
<path d="M10.7061 6.26471L10.7061 3L3.08851 4.63235C3.08851 5.53388 3.77058 6.26471 4.61202 6.26471L10.7061 6.26471Z" fill="#8A95A1"/>
</g>
</g>
<defs>
<clipPath id="clip0_6124_86099">
<rect width="22" height="22" fill="white"/>
</clipPath>
<clipPath id="clip1_6124_86099">
<rect width="22" height="22" fill="white"/>
</clipPath>
</defs>
</svg>
