<svg width="22" height="22" viewBox="0 0 22 22" fill="none" xmlns="http://www.w3.org/2000/svg">
<path fill-rule="evenodd" clip-rule="evenodd" d="M3.66675 8.0665C3.66675 6.9327 4.11715 5.84534 4.91887 5.04362C5.72058 4.2419 6.80795 3.7915 7.94175 3.7915H18.8667V18.9915H7.94175C6.80795 18.9915 5.72058 18.5411 4.91887 17.7394C4.11715 16.9377 3.66675 15.8503 3.66675 14.7165V8.0665ZM7.94175 6.6415H16.0167V9.4915H7.94175C7.56381 9.4915 7.20136 9.34137 6.93412 9.07413C6.66688 8.80689 6.51675 8.44444 6.51675 8.0665C6.51675 7.68857 6.66688 7.32612 6.93412 7.05888C7.20136 6.79164 7.56381 6.6415 7.94175 6.6415ZM12.2167 12.3415H16.0167V16.1415H12.2167V12.3415Z" fill="#8A95A1"/>
</svg>
